<?xml version="1.0" encoding="UTF-8"?>
<svg id="Layer_1" data-name="Layer 1" xmlns="http://www.w3.org/2000/svg" viewBox="0 0 617.25 229.51">
  <defs>
    <style>
      .cls-1 {
        fill: #fff;
      }
    </style>
  </defs>
  <g>
    <path class="cls-1" d="m165.96,149.37v-70.43h14.59v70.43h-14.59Zm45.07,0l-31.69-35.62,30.58-34.81h17.1l-33.7,38.03.7-7.14,35.32,39.54h-18.31Z"/>
    <path class="cls-1" d="m250.57,150.57c-1.41,0-2.7-.08-3.87-.25-1.17-.17-2.3-.42-3.37-.75v-12.07c2.08.67,4.19,1.01,6.34,1.01,1.68,0,3.19-.25,4.53-.75,1.34-.5,2.57-1.31,3.67-2.41s2.1-2.53,2.97-4.28l2.92-5.94-.2,8.45-31.19-54.63h15.79l20.02,36.72h.5l17.1-36.72h14.99l-25.05,51.91c-2.35,4.83-4.7,8.67-7.04,11.52-2.35,2.85-4.96,4.93-7.85,6.24-2.89,1.31-6.31,1.96-10.26,1.96Z"/>
    <path class="cls-1" d="m307.82,149.37v-70.43h53.83v12.07h-39.24v46.28h16.8c4.43,0,7.76-.84,10.01-2.52,2.25-1.68,3.37-4.19,3.37-7.55s-1.11-5.87-3.32-7.55c-2.21-1.68-5.57-2.52-10.06-2.52h-23.84v-12.07h24.75c6.17,0,11.34.84,15.49,2.52,4.16,1.68,7.29,4.16,9.41,7.45,2.11,3.29,3.17,7.34,3.17,12.17,0,7.24-2.38,12.74-7.14,16.5-4.76,3.76-11.74,5.63-20.93,5.63h-32.29Z"/>
    <path class="cls-1" d="m380.76,149.37v-70.43h53.32v12.58h-38.73v57.85h-14.59Z"/>
    <path class="cls-1" d="m428.04,149.37l28.57-70.43h18.31l28.57,70.43h-15.49l-22.13-56.34h-.5l-22.23,56.34h-15.09Zm13.28-13.08l4.63-12.07h39.24l4.63,12.07h-48.49Z"/>
    <path class="cls-1" d="m517.68,150.57c-1.41,0-2.7-.08-3.87-.25-1.17-.17-2.3-.42-3.37-.75v-12.07c2.08.67,4.19,1.01,6.34,1.01,1.68,0,3.19-.25,4.53-.75,1.34-.5,2.57-1.31,3.67-2.41,1.11-1.11,2.09-2.53,2.97-4.28l2.92-5.94-.2,8.45-31.19-54.63h15.79l20.02,36.72h.5l17.1-36.72h14.99l-25.05,51.91c-2.35,4.83-4.7,8.67-7.04,11.52-2.35,2.85-4.96,4.93-7.85,6.24-2.89,1.31-6.3,1.96-10.26,1.96Z"/>
  </g>
  <g>
    <path class="cls-1" d="m82.79,156.78s-.01-.01-.02-.01c-9.71-6.92-21.45-9.86-33.41-10.06v19.96c9.71,0,25.93,2.39,33.41,13.48,9.08-10.5,20.94-13.48,33.83-13.48v-19.96c-11.97.2-24.17,3.13-33.81,10.07Z"/>
    <g>
      <path class="cls-1" d="m82.99,49.36l-24.16,24.16c-11.45,11.45-12.45,29.38-3.02,41.97-.82-6.75,1.41-13.51,6.08-18.46l.77-.82,33.59-33.59-13.26-13.26Z"/>
      <path class="cls-1" d="m107.3,73.68l-7.56-7.56-33.56,33.56c-7.36,7.36-7.36,19.29,0,26.65l6.51,6.51c-1.04-7.15,1.35-14.37,6.46-19.48l.33-.33,32.81-32.81c-1.35-2.33-3-4.54-4.98-6.54Z"/>
      <path class="cls-1" d="m82.99,116.49c-7.36,7.36-7.36,19.29,0,26.65l24.16-24.16c9.2-9.2,11.65-22.58,7.37-34.01l-31.53,31.53Z"/>
    </g>
  </g>
</svg>